<svg xmlns="http://www.w3.org/2000/svg" width="900" height="900" viewBox="0 0 900 900">
<defs><filter id="glow"><feGaussianBlur stdDeviation="3" result="coloredBlur"/><feMerge><feMergeNode in="coloredBlur"/><feMergeNode in="SourceGraphic"/></feMerge></filter></defs>
<rect x="0" y="0" width="100%" height="100%" fill="black"/>
<circle cx="450.0" cy="450.0" r="40.0" stroke="white" stroke-opacity="0.08" fill="none"/>
<circle cx="450.0" cy="450.0" r="80.0" stroke="white" stroke-opacity="0.08" fill="none"/>
<circle cx="450.0" cy="450.0" r="120.0" stroke="white" stroke-opacity="0.08" fill="none"/>
<circle cx="450.0" cy="450.0" r="160.0" stroke="white" stroke-opacity="0.08" fill="none"/>
<circle cx="450.0" cy="450.0" r="200.0" stroke="white" stroke-opacity="0.08" fill="none"/>
<circle cx="450.0" cy="450.0" r="240.0" stroke="white" stroke-opacity="0.08" fill="none"/>
<circle cx="450.0" cy="450.0" r="280.0" stroke="white" stroke-opacity="0.08" fill="none"/>
<circle cx="450.0" cy="450.0" r="320.0" stroke="white" stroke-opacity="0.08" fill="none"/>
<circle cx="450.0" cy="450.0" r="360.0" stroke="white" stroke-opacity="0.15" fill="none"/>
<line x1="450.0" y1="450.0" x2="450.0" y2="90.0" stroke="white" stroke-opacity="0.12"/>
<text x="450.0" y="66.0" fill="white" font-size="12" text-anchor="middle" dominant-baseline="middle">CI</text>
<line x1="450.0" y1="450.0" x2="704.6" y2="195.4" stroke="white" stroke-opacity="0.12"/>
<text x="721.5" y="178.5" fill="white" font-size="12" text-anchor="middle" dominant-baseline="middle">COVERAGE</text>
<line x1="450.0" y1="450.0" x2="810.0" y2="450.0" stroke="white" stroke-opacity="0.12"/>
<text x="834.0" y="450.0" fill="white" font-size="12" text-anchor="middle" dominant-baseline="middle">OFS</text>
<line x1="450.0" y1="450.0" x2="704.6" y2="704.6" stroke="white" stroke-opacity="0.12"/>
<text x="721.5" y="721.5" fill="white" font-size="12" text-anchor="middle" dominant-baseline="middle">LSH</text>
<line x1="450.0" y1="450.0" x2="450.0" y2="810.0" stroke="white" stroke-opacity="0.12"/>
<text x="450.0" y="834.0" fill="white" font-size="12" text-anchor="middle" dominant-baseline="middle">DTI</text>
<line x1="450.0" y1="450.0" x2="195.4" y2="704.6" stroke="white" stroke-opacity="0.12"/>
<text x="178.5" y="721.5" fill="white" font-size="12" text-anchor="middle" dominant-baseline="middle">T_NORM</text>
<line x1="450.0" y1="450.0" x2="90.0" y2="450.0" stroke="white" stroke-opacity="0.12"/>
<text x="66.0" y="450.0" fill="white" font-size="12" text-anchor="middle" dominant-baseline="middle">LT_NORM</text>
<line x1="450.0" y1="450.0" x2="195.4" y2="195.4" stroke="white" stroke-opacity="0.12"/>
<text x="178.5" y="178.5" fill="white" font-size="12" text-anchor="middle" dominant-baseline="middle">EE</text>
<polygon points="450.0,378.0 450.0,450.0 690.1,450.0 563.0,563.0 450.0,540.0 195.4,704.6 270.0,450.0 450.0,450.0" fill="white" fill-opacity="0.12" stroke="white" stroke-opacity="0.4" filter="url(#glow)"/>
<text x="450.0" y="40" fill="white" font-size="18" text-anchor="middle">CoCivium Progress Map (v0)</text>
</svg>