<svg xmlns="http://www.w3.org/2000/svg" width="1200" height="900" viewBox="0 0 1200 900">
<defs>
      <radialGradient id="bgGrad" cx="50%" cy="50%" r="75%">
        <stop offset="0%" stop-color="#0c0f15"/>
        <stop offset="60%" stop-color="#070a0f"/>
        <stop offset="100%" stop-color="#05070b"/>
      </radialGradient>
      <linearGradient id="polyGrad" x1="0%" y1="0%" x2="0%" y2="100%">
        <stop offset="0%" stop-color="#7dd3fc" stop-opacity="0.30"/>
        <stop offset="100%" stop-color="#a78bfa" stop-opacity="0.18"/>
      </linearGradient>
      <filter id="softGlow"><feGaussianBlur stdDeviation="4" result="g"/><feMerge><feMergeNode in="g"/><feMergeNode in="SourceGraphic"/></feMerge></filter>
      <filter id="pointGlow"><feGaussianBlur stdDeviation="1.2" result="g"/><feMerge><feMergeNode in="g"/><feMergeNode in="SourceGraphic"/></feMerge></filter>
    </defs>
<rect x="0" y="0" width="100%" height="100%" fill="url(#bgGrad)"/>
<circle cx="966.5" cy="150.5" r="0.71" fill="#ffffff" opacity="0.22"/>
<circle cx="1082.1" cy="818.5" r="0.47" fill="#ffffff" opacity="0.17"/>
<circle cx="578.9" cy="375.8" r="1.39" fill="#ffffff" opacity="0.39"/>
<circle cx="993.8" cy="844.0" r="1.39" fill="#ffffff" opacity="0.10"/>
<circle cx="395.3" cy="636.4" r="0.53" fill="#ffffff" opacity="0.28"/>
<circle cx="362.4" cy="334.1" r="0.98" fill="#ffffff" opacity="0.31"/>
<circle cx="257.8" cy="359.8" r="0.98" fill="#ffffff" opacity="0.19"/>
<circle cx="159.1" cy="346.7" r="0.58" fill="#ffffff" opacity="0.38"/>
<circle cx="877.4" cy="649.8" r="1.39" fill="#ffffff" opacity="0.35"/>
<circle cx="12.3" cy="156.9" r="1.18" fill="#ffffff" opacity="0.25"/>
<circle cx="514.7" cy="323.9" r="1.07" fill="#ffffff" opacity="0.39"/>
<circle cx="811.9" cy="816.5" r="1.06" fill="#ffffff" opacity="0.35"/>
<circle cx="927.8" cy="776.7" r="0.73" fill="#ffffff" opacity="0.22"/>
<circle cx="440.8" cy="398.1" r="1.01" fill="#ffffff" opacity="0.10"/>
<circle cx="979.6" cy="855.2" r="0.36" fill="#ffffff" opacity="0.20"/>
<circle cx="126.3" cy="273.7" r="0.75" fill="#ffffff" opacity="0.33"/>
<circle cx="832.3" cy="685.5" r="1.07" fill="#ffffff" opacity="0.12"/>
<circle cx="1102.5" cy="331.0" r="0.68" fill="#ffffff" opacity="0.39"/>
<circle cx="47.4" cy="735.5" r="0.67" fill="#ffffff" opacity="0.36"/>
<circle cx="939.1" cy="166.1" r="0.57" fill="#ffffff" opacity="0.09"/>
<circle cx="542.3" cy="179.9" r="0.48" fill="#ffffff" opacity="0.22"/>
<circle cx="798.7" cy="584.6" r="0.62" fill="#ffffff" opacity="0.14"/>
<circle cx="893.5" cy="533.0" r="0.86" fill="#ffffff" opacity="0.37"/>
<circle cx="867.0" cy="507.9" r="1.23" fill="#ffffff" opacity="0.18"/>
<circle cx="225.3" cy="237.2" r="0.75" fill="#ffffff" opacity="0.15"/>
<circle cx="167.3" cy="677.3" r="0.57" fill="#ffffff" opacity="0.26"/>
<circle cx="842.9" cy="280.0" r="1.36" fill="#ffffff" opacity="0.24"/>
<circle cx="660.8" cy="371.1" r="1.13" fill="#ffffff" opacity="0.19"/>
<circle cx="685.5" cy="510.2" r="1.10" fill="#ffffff" opacity="0.14"/>
<circle cx="386.7" cy="639.9" r="1.11" fill="#ffffff" opacity="0.20"/>
<circle cx="814.4" cy="509.7" r="0.92" fill="#ffffff" opacity="0.38"/>
<circle cx="959.0" cy="162.9" r="1.12" fill="#ffffff" opacity="0.39"/>
<circle cx="534.6" cy="14.1" r="0.74" fill="#ffffff" opacity="0.23"/>
<circle cx="28.3" cy="738.9" r="1.15" fill="#ffffff" opacity="0.33"/>
<circle cx="1121.5" cy="60.2" r="1.40" fill="#ffffff" opacity="0.25"/>
<circle cx="502.1" cy="476.3" r="0.66" fill="#ffffff" opacity="0.27"/>
<circle cx="631.8" cy="325.1" r="0.68" fill="#ffffff" opacity="0.26"/>
<circle cx="47.9" cy="694.6" r="0.92" fill="#ffffff" opacity="0.16"/>
<circle cx="647.0" cy="209.6" r="0.93" fill="#ffffff" opacity="0.16"/>
<circle cx="992.2" cy="313.8" r="0.44" fill="#ffffff" opacity="0.28"/>
<circle cx="403.0" cy="724.7" r="0.74" fill="#ffffff" opacity="0.33"/>
<circle cx="318.4" cy="279.9" r="0.68" fill="#ffffff" opacity="0.19"/>
<circle cx="207.7" cy="535.0" r="0.45" fill="#ffffff" opacity="0.17"/>
<circle cx="859.1" cy="660.7" r="1.20" fill="#ffffff" opacity="0.25"/>
<circle cx="725.6" cy="601.3" r="0.80" fill="#ffffff" opacity="0.33"/>
<circle cx="536.3" cy="326.2" r="0.87" fill="#ffffff" opacity="0.33"/>
<circle cx="475.6" cy="792.0" r="1.13" fill="#ffffff" opacity="0.35"/>
<circle cx="1162.5" cy="705.6" r="0.89" fill="#ffffff" opacity="0.40"/>
<circle cx="563.2" cy="717.5" r="1.28" fill="#ffffff" opacity="0.14"/>
<circle cx="181.3" cy="457.5" r="0.34" fill="#ffffff" opacity="0.25"/>
<circle cx="886.4" cy="784.2" r="0.35" fill="#ffffff" opacity="0.31"/>
<circle cx="372.3" cy="55.4" r="1.11" fill="#ffffff" opacity="0.33"/>
<circle cx="1116.9" cy="292.7" r="1.29" fill="#ffffff" opacity="0.08"/>
<circle cx="743.2" cy="349.1" r="0.85" fill="#ffffff" opacity="0.15"/>
<circle cx="921.7" cy="894.1" r="0.41" fill="#ffffff" opacity="0.16"/>
<circle cx="270.6" cy="368.3" r="0.97" fill="#ffffff" opacity="0.37"/>
<circle cx="1188.3" cy="539.7" r="0.46" fill="#ffffff" opacity="0.12"/>
<circle cx="57.6" cy="117.3" r="1.31" fill="#ffffff" opacity="0.39"/>
<circle cx="620.3" cy="796.8" r="0.95" fill="#ffffff" opacity="0.10"/>
<circle cx="325.8" cy="149.2" r="0.48" fill="#ffffff" opacity="0.15"/>
<circle cx="867.9" cy="385.4" r="1.19" fill="#ffffff" opacity="0.10"/>
<circle cx="50.7" cy="588.9" r="1.34" fill="#ffffff" opacity="0.28"/>
<circle cx="435.9" cy="426.2" r="0.89" fill="#ffffff" opacity="0.09"/>
<circle cx="430.7" cy="265.7" r="0.55" fill="#ffffff" opacity="0.19"/>
<circle cx="923.3" cy="162.1" r="1.10" fill="#ffffff" opacity="0.13"/>
<circle cx="113.5" cy="554.8" r="1.26" fill="#ffffff" opacity="0.08"/>
<circle cx="731.8" cy="230.4" r="0.39" fill="#ffffff" opacity="0.16"/>
<circle cx="844.9" cy="833.2" r="1.22" fill="#ffffff" opacity="0.17"/>
<circle cx="1077.0" cy="232.6" r="0.40" fill="#ffffff" opacity="0.26"/>
<circle cx="896.2" cy="85.2" r="1.20" fill="#ffffff" opacity="0.16"/>
<circle cx="836.3" cy="845.1" r="1.38" fill="#ffffff" opacity="0.14"/>
<circle cx="536.8" cy="674.2" r="0.45" fill="#ffffff" opacity="0.19"/>
<circle cx="1065.5" cy="370.6" r="1.09" fill="#ffffff" opacity="0.13"/>
<circle cx="441.4" cy="738.2" r="1.38" fill="#ffffff" opacity="0.39"/>
<circle cx="96.3" cy="897.2" r="0.79" fill="#ffffff" opacity="0.22"/>
<circle cx="706.8" cy="423.7" r="0.86" fill="#ffffff" opacity="0.18"/>
<circle cx="1110.7" cy="431.6" r="0.46" fill="#ffffff" opacity="0.37"/>
<circle cx="1103.6" cy="390.3" r="0.69" fill="#ffffff" opacity="0.22"/>
<circle cx="605.0" cy="784.2" r="0.53" fill="#ffffff" opacity="0.27"/>
<circle cx="1087.4" cy="327.8" r="0.97" fill="#ffffff" opacity="0.14"/>
<circle cx="542.2" cy="796.7" r="0.53" fill="#ffffff" opacity="0.21"/>
<circle cx="586.6" cy="722.2" r="1.13" fill="#ffffff" opacity="0.34"/>
<circle cx="986.5" cy="830.3" r="1.11" fill="#ffffff" opacity="0.21"/>
<circle cx="135.1" cy="691.1" r="0.55" fill="#ffffff" opacity="0.09"/>
<circle cx="157.9" cy="317.5" r="0.77" fill="#ffffff" opacity="0.30"/>
<circle cx="829.5" cy="338.6" r="1.14" fill="#ffffff" opacity="0.35"/>
<circle cx="929.3" cy="69.3" r="0.84" fill="#ffffff" opacity="0.30"/>
<circle cx="564.1" cy="443.1" r="1.21" fill="#ffffff" opacity="0.32"/>
<circle cx="702.6" cy="632.8" r="0.61" fill="#ffffff" opacity="0.37"/>
<circle cx="516.2" cy="481.5" r="0.71" fill="#ffffff" opacity="0.29"/>
<circle cx="147.0" cy="706.2" r="0.33" fill="#ffffff" opacity="0.37"/>
<circle cx="282.5" cy="376.9" r="1.19" fill="#ffffff" opacity="0.22"/>
<circle cx="53.1" cy="268.1" r="0.77" fill="#ffffff" opacity="0.19"/>
<circle cx="34.0" cy="41.9" r="1.01" fill="#ffffff" opacity="0.15"/>
<circle cx="232.2" cy="26.5" r="0.37" fill="#ffffff" opacity="0.11"/>
<circle cx="620.6" cy="566.4" r="0.96" fill="#ffffff" opacity="0.22"/>
<circle cx="1112.7" cy="32.3" r="0.68" fill="#ffffff" opacity="0.16"/>
<circle cx="324.5" cy="223.9" r="0.58" fill="#ffffff" opacity="0.23"/>
<circle cx="724.1" cy="710.9" r="1.18" fill="#ffffff" opacity="0.33"/>
<circle cx="981.9" cy="267.7" r="0.66" fill="#ffffff" opacity="0.36"/>
<circle cx="202.5" cy="840.3" r="0.37" fill="#ffffff" opacity="0.20"/>
<circle cx="892.9" cy="221.6" r="0.90" fill="#ffffff" opacity="0.16"/>
<circle cx="913.3" cy="744.6" r="1.14" fill="#ffffff" opacity="0.15"/>
<circle cx="288.0" cy="431.1" r="0.83" fill="#ffffff" opacity="0.14"/>
<circle cx="288.4" cy="735.6" r="1.34" fill="#ffffff" opacity="0.11"/>
<circle cx="425.5" cy="746.4" r="1.04" fill="#ffffff" opacity="0.26"/>
<circle cx="463.0" cy="802.6" r="0.45" fill="#ffffff" opacity="0.18"/>
<circle cx="89.6" cy="868.7" r="0.72" fill="#ffffff" opacity="0.36"/>
<circle cx="1153.8" cy="649.0" r="0.46" fill="#ffffff" opacity="0.40"/>
<circle cx="7.2" cy="895.7" r="0.56" fill="#ffffff" opacity="0.08"/>
<circle cx="381.3" cy="263.1" r="0.45" fill="#ffffff" opacity="0.40"/>
<circle cx="1016.1" cy="570.2" r="0.48" fill="#ffffff" opacity="0.18"/>
<circle cx="676.4" cy="79.7" r="1.40" fill="#ffffff" opacity="0.31"/>
<circle cx="714.7" cy="562.6" r="0.86" fill="#ffffff" opacity="0.27"/>
<circle cx="626.6" cy="427.7" r="0.83" fill="#ffffff" opacity="0.30"/>
<circle cx="547.1" cy="585.7" r="0.66" fill="#ffffff" opacity="0.24"/>
<circle cx="112.9" cy="524.9" r="0.91" fill="#ffffff" opacity="0.24"/>
<circle cx="1145.8" cy="18.6" r="1.16" fill="#ffffff" opacity="0.12"/>
<circle cx="806.7" cy="649.5" r="0.38" fill="#ffffff" opacity="0.09"/>
<circle cx="1175.5" cy="231.2" r="0.95" fill="#ffffff" opacity="0.27"/>
<circle cx="1032.7" cy="70.1" r="0.87" fill="#ffffff" opacity="0.14"/>
<circle cx="1077.2" cy="112.6" r="0.31" fill="#ffffff" opacity="0.14"/>
<circle cx="7.1" cy="694.6" r="0.47" fill="#ffffff" opacity="0.15"/>
<circle cx="1092.1" cy="341.3" r="0.71" fill="#ffffff" opacity="0.20"/>
<circle cx="285.1" cy="478.4" r="1.06" fill="#ffffff" opacity="0.33"/>
<circle cx="629.6" cy="500.0" r="1.32" fill="#ffffff" opacity="0.25"/>
<circle cx="1084.3" cy="500.3" r="1.38" fill="#ffffff" opacity="0.36"/>
<circle cx="1135.0" cy="469.0" r="1.38" fill="#ffffff" opacity="0.19"/>
<circle cx="1156.9" cy="756.9" r="0.90" fill="#ffffff" opacity="0.33"/>
<circle cx="918.9" cy="346.3" r="0.41" fill="#ffffff" opacity="0.08"/>
<circle cx="600.5" cy="150.9" r="1.19" fill="#ffffff" opacity="0.20"/>
<circle cx="596.2" cy="142.6" r="0.85" fill="#ffffff" opacity="0.11"/>
<circle cx="173.8" cy="17.3" r="1.21" fill="#ffffff" opacity="0.33"/>
<circle cx="88.2" cy="275.3" r="1.29" fill="#ffffff" opacity="0.27"/>
<circle cx="327.0" cy="727.1" r="1.32" fill="#ffffff" opacity="0.33"/>
<circle cx="942.0" cy="125.5" r="0.54" fill="#ffffff" opacity="0.33"/>
<circle cx="504.4" cy="97.8" r="0.91" fill="#ffffff" opacity="0.32"/>
<circle cx="1102.3" cy="569.2" r="1.09" fill="#ffffff" opacity="0.21"/>
<circle cx="143.5" cy="784.0" r="1.32" fill="#ffffff" opacity="0.11"/>
<circle cx="962.9" cy="574.4" r="0.60" fill="#ffffff" opacity="0.40"/>
<circle cx="513.4" cy="428.1" r="1.40" fill="#ffffff" opacity="0.35"/>
<circle cx="532.1" cy="316.8" r="1.32" fill="#ffffff" opacity="0.30"/>
<circle cx="165.8" cy="399.6" r="0.93" fill="#ffffff" opacity="0.38"/>
<circle cx="916.3" cy="749.9" r="0.87" fill="#ffffff" opacity="0.11"/>
<circle cx="52.2" cy="277.3" r="1.20" fill="#ffffff" opacity="0.37"/>
<circle cx="136.0" cy="394.9" r="1.20" fill="#ffffff" opacity="0.31"/>
<circle cx="654.1" cy="752.3" r="0.93" fill="#ffffff" opacity="0.29"/>
<circle cx="729.6" cy="150.6" r="1.12" fill="#ffffff" opacity="0.37"/>
<circle cx="168.4" cy="706.3" r="1.11" fill="#ffffff" opacity="0.21"/>
<circle cx="1094.6" cy="438.5" r="1.26" fill="#ffffff" opacity="0.15"/>
<circle cx="292.8" cy="804.7" r="0.72" fill="#ffffff" opacity="0.16"/>
<circle cx="1027.1" cy="406.3" r="0.32" fill="#ffffff" opacity="0.29"/>
<circle cx="766.0" cy="290.9" r="1.02" fill="#ffffff" opacity="0.39"/>
<circle cx="341.5" cy="480.8" r="0.46" fill="#ffffff" opacity="0.26"/>
<circle cx="449.7" cy="767.5" r="0.55" fill="#ffffff" opacity="0.20"/>
<circle cx="610.9" cy="280.4" r="0.60" fill="#ffffff" opacity="0.18"/>
<circle cx="776.6" cy="538.5" r="0.36" fill="#ffffff" opacity="0.30"/>
<circle cx="754.7" cy="701.3" r="1.28" fill="#ffffff" opacity="0.29"/>
<circle cx="141.0" cy="466.1" r="0.47" fill="#ffffff" opacity="0.35"/>
<circle cx="155.8" cy="335.5" r="0.75" fill="#ffffff" opacity="0.12"/>
<circle cx="61.0" cy="481.1" r="0.71" fill="#ffffff" opacity="0.33"/>
<circle cx="463.9" cy="546.7" r="1.38" fill="#ffffff" opacity="0.11"/>
<circle cx="888.4" cy="862.2" r="1.39" fill="#ffffff" opacity="0.10"/>
<circle cx="382.5" cy="590.5" r="0.32" fill="#ffffff" opacity="0.34"/>
<circle cx="404.5" cy="68.9" r="0.38" fill="#ffffff" opacity="0.09"/>
<circle cx="239.0" cy="622.1" r="0.38" fill="#ffffff" opacity="0.21"/>
<circle cx="793.0" cy="693.4" r="1.17" fill="#ffffff" opacity="0.35"/>
<circle cx="221.6" cy="371.2" r="1.11" fill="#ffffff" opacity="0.18"/>
<circle cx="1.4" cy="831.5" r="0.34" fill="#ffffff" opacity="0.38"/>
<circle cx="897.8" cy="882.3" r="0.55" fill="#ffffff" opacity="0.16"/>
<circle cx="536.0" cy="238.1" r="1.39" fill="#ffffff" opacity="0.36"/>
<circle cx="742.0" cy="624.0" r="0.33" fill="#ffffff" opacity="0.35"/>
<circle cx="186.7" cy="134.2" r="0.37" fill="#ffffff" opacity="0.34"/>
<circle cx="476.1" cy="372.0" r="0.99" fill="#ffffff" opacity="0.29"/>
<circle cx="821.9" cy="129.7" r="1.21" fill="#ffffff" opacity="0.32"/>
<circle cx="1133.4" cy="163.9" r="1.21" fill="#ffffff" opacity="0.10"/>
<circle cx="804.8" cy="797.3" r="0.90" fill="#ffffff" opacity="0.29"/>
<circle cx="803.1" cy="142.9" r="1.35" fill="#ffffff" opacity="0.34"/>
<circle cx="285.2" cy="380.6" r="1.12" fill="#ffffff" opacity="0.11"/>
<circle cx="546.4" cy="281.0" r="1.35" fill="#ffffff" opacity="0.12"/>
<circle cx="547.2" cy="709.2" r="0.52" fill="#ffffff" opacity="0.33"/>
<circle cx="395.2" cy="164.8" r="0.71" fill="#ffffff" opacity="0.32"/>
<circle cx="189.2" cy="115.5" r="0.53" fill="#ffffff" opacity="0.25"/>
<circle cx="760.7" cy="862.7" r="1.32" fill="#ffffff" opacity="0.14"/>
<circle cx="867.2" cy="468.6" r="0.42" fill="#ffffff" opacity="0.22"/>
<circle cx="6.4" cy="199.9" r="1.18" fill="#ffffff" opacity="0.09"/>
<circle cx="1081.4" cy="294.4" r="1.23" fill="#ffffff" opacity="0.09"/>
<circle cx="544.4" cy="598.0" r="0.99" fill="#ffffff" opacity="0.39"/>
<circle cx="946.0" cy="803.9" r="0.89" fill="#ffffff" opacity="0.20"/>
<circle cx="1104.4" cy="397.2" r="0.42" fill="#ffffff" opacity="0.14"/>
<circle cx="622.0" cy="471.4" r="0.61" fill="#ffffff" opacity="0.31"/>
<circle cx="228.1" cy="827.3" r="0.57" fill="#ffffff" opacity="0.37"/>
<circle cx="1026.2" cy="99.0" r="0.85" fill="#ffffff" opacity="0.26"/>
<circle cx="90.3" cy="222.9" r="1.00" fill="#ffffff" opacity="0.18"/>
<circle cx="547.6" cy="96.3" r="0.67" fill="#ffffff" opacity="0.24"/>
<circle cx="359.0" cy="221.4" r="0.38" fill="#ffffff" opacity="0.29"/>
<circle cx="802.0" cy="742.0" r="0.54" fill="#ffffff" opacity="0.36"/>
<circle cx="541.2" cy="844.1" r="0.66" fill="#ffffff" opacity="0.35"/>
<circle cx="449.1" cy="390.2" r="1.22" fill="#ffffff" opacity="0.17"/>
<circle cx="227.3" cy="438.2" r="1.30" fill="#ffffff" opacity="0.11"/>
<circle cx="1114.6" cy="379.7" r="1.12" fill="#ffffff" opacity="0.34"/>
<circle cx="423.0" cy="288.8" r="0.91" fill="#ffffff" opacity="0.19"/>
<circle cx="362.7" cy="301.3" r="1.36" fill="#ffffff" opacity="0.29"/>
<circle cx="6.4" cy="827.0" r="0.32" fill="#ffffff" opacity="0.27"/>
<circle cx="957.9" cy="344.6" r="1.20" fill="#ffffff" opacity="0.33"/>
<circle cx="586.0" cy="629.5" r="1.35" fill="#ffffff" opacity="0.15"/>
<circle cx="382.7" cy="26.9" r="1.02" fill="#ffffff" opacity="0.10"/>
<circle cx="233.5" cy="292.3" r="0.30" fill="#ffffff" opacity="0.29"/>
<circle cx="281.4" cy="164.4" r="0.35" fill="#ffffff" opacity="0.11"/>
<circle cx="950.9" cy="257.2" r="0.32" fill="#ffffff" opacity="0.09"/>
<circle cx="1080.6" cy="322.6" r="1.18" fill="#ffffff" opacity="0.29"/>
<circle cx="1093.2" cy="791.6" r="1.32" fill="#ffffff" opacity="0.13"/>
<circle cx="237.0" cy="311.9" r="1.13" fill="#ffffff" opacity="0.39"/>
<circle cx="1041.7" cy="591.6" r="0.57" fill="#ffffff" opacity="0.23"/>
<circle cx="702.0" cy="166.5" r="0.96" fill="#ffffff" opacity="0.29"/>
<circle cx="681.0" cy="401.8" r="0.35" fill="#ffffff" opacity="0.13"/>
<circle cx="163.0" cy="282.7" r="0.56" fill="#ffffff" opacity="0.14"/>
<circle cx="1014.5" cy="859.9" r="1.18" fill="#ffffff" opacity="0.15"/>
<circle cx="619.3" cy="480.1" r="0.75" fill="#ffffff" opacity="0.31"/>
<circle cx="669.0" cy="96.9" r="0.68" fill="#ffffff" opacity="0.11"/>
<circle cx="600.0" cy="460.0" r="40.0" stroke="#cbd5e1" stroke-opacity="0.08" fill="none"/>
<circle cx="600.0" cy="460.0" r="80.0" stroke="#cbd5e1" stroke-opacity="0.08" fill="none"/>
<circle cx="600.0" cy="460.0" r="120.0" stroke="#cbd5e1" stroke-opacity="0.08" fill="none"/>
<circle cx="600.0" cy="460.0" r="160.0" stroke="#cbd5e1" stroke-opacity="0.08" fill="none"/>
<circle cx="600.0" cy="460.0" r="200.0" stroke="#cbd5e1" stroke-opacity="0.08" fill="none"/>
<circle cx="600.0" cy="460.0" r="240.0" stroke="#cbd5e1" stroke-opacity="0.08" fill="none"/>
<circle cx="600.0" cy="460.0" r="280.0" stroke="#cbd5e1" stroke-opacity="0.08" fill="none"/>
<circle cx="600.0" cy="460.0" r="320.0" stroke="#cbd5e1" stroke-opacity="0.08" fill="none"/>
<circle cx="600.0" cy="460.0" r="360.0" stroke="#cbd5e1" stroke-opacity="0.2" fill="none" stroke-dasharray="4,6"/>
<circle cx="600.0" cy="460.0" r="20.0" stroke="#94a3b8" stroke-opacity="0.04" fill="none"/>
<circle cx="600.0" cy="460.0" r="40.0" stroke="#94a3b8" stroke-opacity="0.04" fill="none"/>
<circle cx="600.0" cy="460.0" r="60.0" stroke="#94a3b8" stroke-opacity="0.04" fill="none"/>
<circle cx="600.0" cy="460.0" r="80.0" stroke="#94a3b8" stroke-opacity="0.04" fill="none"/>
<circle cx="600.0" cy="460.0" r="100.0" stroke="#94a3b8" stroke-opacity="0.04" fill="none"/>
<circle cx="600.0" cy="460.0" r="120.0" stroke="#94a3b8" stroke-opacity="0.04" fill="none"/>
<circle cx="600.0" cy="460.0" r="140.0" stroke="#94a3b8" stroke-opacity="0.04" fill="none"/>
<circle cx="600.0" cy="460.0" r="160.0" stroke="#94a3b8" stroke-opacity="0.04" fill="none"/>
<circle cx="600.0" cy="460.0" r="180.0" stroke="#94a3b8" stroke-opacity="0.04" fill="none"/>
<circle cx="600.0" cy="460.0" r="200.0" stroke="#94a3b8" stroke-opacity="0.04" fill="none"/>
<circle cx="600.0" cy="460.0" r="220.0" stroke="#94a3b8" stroke-opacity="0.04" fill="none"/>
<circle cx="600.0" cy="460.0" r="240.0" stroke="#94a3b8" stroke-opacity="0.04" fill="none"/>
<circle cx="600.0" cy="460.0" r="260.0" stroke="#94a3b8" stroke-opacity="0.04" fill="none"/>
<circle cx="600.0" cy="460.0" r="280.0" stroke="#94a3b8" stroke-opacity="0.04" fill="none"/>
<circle cx="600.0" cy="460.0" r="300.0" stroke="#94a3b8" stroke-opacity="0.04" fill="none"/>
<circle cx="600.0" cy="460.0" r="320.0" stroke="#94a3b8" stroke-opacity="0.04" fill="none"/>
<circle cx="600.0" cy="460.0" r="340.0" stroke="#94a3b8" stroke-opacity="0.04" fill="none"/>
<line x1="600.0" y1="460.0" x2="600.0" y2="100.0" stroke="#e2e8f0" stroke-opacity="0.12"/>
<text x="600.0" y="66.0" fill="#cbd5e1" font-size="14" text-anchor="middle" dominant-baseline="middle">Coherence</text>
<line x1="600.0" y1="460.0" x2="854.6" y2="205.4" stroke="#e2e8f0" stroke-opacity="0.12"/>
<text x="878.6" y="181.4" fill="#cbd5e1" font-size="14" text-anchor="middle" dominant-baseline="middle">Coverage</text>
<line x1="600.0" y1="460.0" x2="960.0" y2="460.0" stroke="#e2e8f0" stroke-opacity="0.12"/>
<text x="994.0" y="460.0" fill="#cbd5e1" font-size="14" text-anchor="middle" dominant-baseline="middle">Onramp</text>
<line x1="600.0" y1="460.0" x2="854.6" y2="714.6" stroke="#e2e8f0" stroke-opacity="0.12"/>
<text x="878.6" y="738.6" fill="#cbd5e1" font-size="14" text-anchor="middle" dominant-baseline="middle">Link/Schema</text>
<line x1="600.0" y1="460.0" x2="600.0" y2="820.0" stroke="#e2e8f0" stroke-opacity="0.12"/>
<text x="600.0" y="854.0" fill="#cbd5e1" font-size="14" text-anchor="middle" dominant-baseline="middle">Decision Trail</text>
<line x1="600.0" y1="460.0" x2="345.4" y2="714.6" stroke="#e2e8f0" stroke-opacity="0.12"/>
<text x="321.4" y="738.6" fill="#cbd5e1" font-size="14" text-anchor="middle" dominant-baseline="middle">Throughput</text>
<line x1="600.0" y1="460.0" x2="240.0" y2="460.0" stroke="#e2e8f0" stroke-opacity="0.12"/>
<text x="206.0" y="460.0" fill="#cbd5e1" font-size="14" text-anchor="middle" dominant-baseline="middle">Lead Time</text>
<line x1="600.0" y1="460.0" x2="345.4" y2="205.4" stroke="#e2e8f0" stroke-opacity="0.12"/>
<text x="321.4" y="181.4" fill="#cbd5e1" font-size="14" text-anchor="middle" dominant-baseline="middle">Engagement</text>
<path d="M600.0,640.0 Q568.7,502.5 523.6,383.6" stroke="#93c5fd" stroke-opacity="0.18" stroke-width="1.2" fill="none"/>
<polygon points="600.0,394.8 600.0,460.0 817.5,460.0 702.4,562.4 600.0,541.5 369.4,690.6 436.9,460.0 600.0,460.0" fill="url(#polyGrad)" stroke="#7dd3fc" stroke-opacity="0.55" stroke-width="2" filter="url(#softGlow)"/>
<line x1="600.0" y1="590.0" x2="600.0" y2="640.0" stroke="#fde68a" stroke-opacity="0.35" stroke-width="1.6"/>
<circle cx="600.0" cy="640.0" r="3.6" fill="#fde68a" filter="url(#pointGlow)"/>
<text x="610.0" y="632.0" fill="#fef3c7" font-size="12">MeritRank Demo</text>
<line x1="554.7" y1="414.7" x2="523.6" y2="383.6" stroke="#fde68a" stroke-opacity="0.35" stroke-width="1.6"/>
<circle cx="523.6" cy="383.6" r="3.6" fill="#fde68a" filter="url(#pointGlow)"/>
<text x="533.6" y="375.6" fill="#fef3c7" font-size="12">Opename Stub</text>
<text x="600.0" y="34" fill="#e2e8f0" font-size="20" text-anchor="middle">CoCivium Progress Map — v1</text>
<rect x="980" y="24" width="196" height="62" rx="10" fill="#0b1220" opacity="0.6"/>
<text x="1080" y="48" fill="#cbd5e1" font-size="14" text-anchor="middle">Redundancy Debt</text>
<text x="1080" y="70" fill="#fca5a5" font-size="16" text-anchor="middle">9%</text>
</svg>