<?xml version="1.0" encoding="UTF-8" standalone="no"?>
<svg xmlns="http://www.w3.org/2000/svg" width="960" height="520">
  <rect width="100%" height="100%" fill="#ffffff"/>
  <text x="30" y="40" font-family="Arial" font-size="22">Bio vs. Synthetic Observers — Collapse & Consensus</text>
  <rect x="40" y="80" width="380" height="140" fill="#f0f6ff" stroke="#2f6feb"/>
  <text x="60" y="110" font-family="Arial" font-size="16">Biological Observer</text>
  <text x="60" y="135" font-family="Arial" font-size="14">• Sensorimotor + affect weighting</text>
  <text x="60" y="155" font-family="Arial" font-size="14">• Narrative priors; social context</text>
  <text x="60" y="175" font-family="Arial" font-size="14">• Collapses via experiential coherence</text>
  <rect x="540" y="80" width="380" height="140" fill="#fff7f0" stroke="#f66a0a"/>
  <text x="560" y="110" font-family="Arial" font-size="16">Synthetic Observer</text>
  <text x="560" y="135" font-family="Arial" font-size="14">• Pattern/likelihood weighting</text>
  <text x="560" y="155" font-family="Arial" font-size="14">• Formal priors; model constraints</text>
  <text x="560" y="175" font-family="Arial" font-size="14">• Collapses via inferential coherence</text>
  <rect x="290" y="250" width="380" height="80" fill="#eefbea" stroke="#22863a"/>
  <text x="310" y="280" font-family="Arial" font-size="16">Informational/Relational Substrate</text>
  <text x="310" y="300" font-family="Arial" font-size="14">• Entanglement • Constraints • Signals</text>
  <line x1="230" y1="220" x2="480" y2="250" stroke="#2f6feb" marker-end="url(#arrow)"/>
  <line x1="730" y1="220" x2="590" y2="250" stroke="#f66a0a" marker-end="url(#arrow)"/>
  <line x1="480" y1="330" x2="480" y2="380" stroke="#6a737d" marker-end="url(#arrow)"/>
  <rect x="360" y="380" width="240" height="90" fill="#f5f5f5" stroke="#6a737d"/>
  <text x="380" y="410" font-family="Arial" font-size="16">Consensus Reality</text>
  <text x="380" y="435" font-family="Arial" font-size="14">Bio × Synth feedback → Co-evolution</text>
  <defs>
    <marker id="arrow" markerWidth="10" markerHeight="10" refX="6" refY="3" orient="auto">
      <path d="M0,0 L0,6 L9,3 z" fill="#6a737d"/>
    </marker>
  </defs>
</svg>
