<?xml version="1.0" encoding="UTF-8" standalone="no"?>
<svg xmlns="http://www.w3.org/2000/svg" width="640" height="400" viewBox="0 0 640 400">
  <title>CoCivium Scope (placeholder)</title>
  <desc>Static-first placeholder.  Replace via generator after crosswalk solidifies.</desc>
  <rect x="0" y="0" width="640" height="400" fill="white" stroke="black"/>
  <text x="320" y="36" text-anchor="middle" font-size="20">Scope — placeholder</text>
  <!-- Simple radial spokes -->
  <g transform="translate(320,210)" stroke="black" fill="none">
    <circle r="150" stroke="#bbb"/>
    <circle r="100" stroke="#ddd"/>
    <circle r="50"  stroke="#eee"/>
    <!-- 10 spokes -->
    <g id="spokes">
      <line x1="0" y1="0" x2="0" y2="-150"/>
      <line x1="0" y1="0" x2="95" y2="-115"/>
      <line x1="0" y1="0" x2="145" y2="-47"/>
      <line x1="0" y1="0" x2="145" y2="47"/>
      <line x1="0" y1="0" x2="95" y2="115"/>
      <line x1="0" y1="0" x2="0" y2="150"/>
      <line x1="0" y1="0" x2="-95" y2="115"/>
      <line x1="0" y1="0" x2="-145" y2="47"/>
      <line x1="0" y1="0" x2="-145" y2="-47"/>
      <line x1="0" y1="0" x2="-95" y2="-115"/>
    </g>
  </g>
  <!-- Abbreviations around rim -->
  <g font-size="12" fill="#333">
    <text x="320" y="50">PRIN</text>
    <text x="465" y="80">DEC</text>
    <text x="540" y="160">EAI</text>
    <text x="540" y="250">TRNS</text>
    <text x="465" y="330">DOM</text>
    <text x="320" y="360">IDV</text>
    <text x="175" y="330">CX</text>
    <text x="100" y="250">FUND</text>
    <text x="100" y="160">TOOLS</text>
    <text x="175" y="80">INT</text>
  </g>
</svg>
